# xmcd
#
# Track frame offsets:
# 150
# 8660
# 22070
# 38764
# 49006
# 64156
# 76573
# 89838
# 104457
# 114276
#
# Disc length: 1722 seconds
#
#
# Revision: 0
# Processed by: cddbd v1.4PL0 Copyright (c) Steve Scherf et al.
# Submitted via: FreeRIP 2.00 
#
DISCID=7306b80a
DTITLE=Sons Of The San Joaquin - Songs of the Silver Screen
DYEAR=1993
DGENRE=Country
TTITLE0=Cowboy Jubliee
TTITLE1=Song Of The Bandit
TTITLE2=Ridin' The Range With You
TTITLE3=Cherokee Strip
TTITLE4=Empty Saddles
TTITLE5=Yippi-Yi Your Troubles Away
TTITLE6=Round Up Time Is Over
TTITLE7=Down Where The Rio Flows
TTITLE8=Headin' For The Home Corral
TTITLE9=He's Ridin' Home
EXTD=Warner Brothers
EXTT0=
EXTT1=
EXTT2=
EXTT3=
EXTT4=
EXTT5=
EXTT6=
EXTT7=
EXTT8=
EXTT9=
PLAYORDER=
